# AST/ASF file generated using VICON BodyLanguage
# -----------------------------------------------
:version 1.10
:name VICON
:units
  mass 1.0
  length 0.45
  angle deg
:documentation
   .ast/.asf automatically generated from VICON data using
   VICON BodyBuilder and BodyLanguage model FoxedUp or BRILLIANT.MOD
:root
   order TX TY TZ RX RY RZ
   axis XYZ
   position 0 0 0  
   orientation 0 0 0 
:bonedata
  begin
     id 1 
     name lhipjoint
     direction 0.611804 -0.747784 0.257906 
     length 2.29243 
     axis 0 0 0  XYZ
  end
  begin
     id 2 
     name lfemur
     direction 0.34202 -0.939693 0  
     length 7.31159  
     axis 0 0 20  XYZ
    dof rx ry rz
    limits (-160.0 20.0)
           (-70.0 70.0)
           (-60.0 70.0)
  end
  begin
     id 3 
     name ltibia
     direction 0.34202 -0.939693 0   
     length 7.33391   
     axis 0 0 20   XYZ
    dof rx
    limits (-10.0 170.0)
  end
  begin
     id 4 
     name lfoot
     direction 0.122263 -0.335914 0.933924   
     length 1.76083   
     axis -90 7.62852e-016 20   XYZ
    dof rx rz
    limits (-45.0 90.0)
           (-70.0 20.0)
  end
  begin
     id 5 
     name ltoes
     direction 1.53533e-011 -4.2177e-011 1   
     length 0.879206   
     axis -90 7.62852e-016 20   XYZ
    dof rx
    limits (-90.0 20.0)
  end
  begin
     id 6 
     name rhipjoint
     direction -0.646469 -0.721248 0.248754   
     length 2.37677  
     axis 0 0 0  XYZ 
  end
  begin
     id 7 
     name rfemur
     direction -0.34202 -0.939693 0   
     length 7.18623   
     axis 0 0 -20   XYZ
    dof rx ry rz
    limits (-160.0 20.0)
           (-70.0 70.0)
           (-70.0 60.0)
  end
  begin
     id 8 
     name rtibia
     direction -0.34202 -0.939693 0   
     length 7.36567   
     axis 0 0 -20   XYZ
    dof rx
    limits (-10.0 170.0)
 end
 begin
     id 9 
     name rfoot
     direction -0.126681 -0.348054 0.928876   
     length 1.71902  
     axis -90 -7.62852e-016 -20   XYZ
    dof rx rz
    limits (-45.0 90.0)
           (-20.0 70.0)
  end
  begin
     id 10 
     name rtoes
     direction -1.53551e-011 -4.21898e-011 1   
     length 0.857792   
     axis -90 -7.62852e-016 -20   XYZ
    dof rx
    limits (-90.0 20.0)
  end
  begin
     id 11 
     name lowerback
     direction 0.0106509 0.999778 0.0181844   
     length 2.07668   
     axis 0 0 0   XYZ
    dof rx ry rz
    limits (-20.0 45.0)
           (-30.0 30.0)
           (-30.0 30.0)
  end
  begin
     id 12 
     name upperback
     direction -0.00456018 0.999989 -0.000590935   
     length 2.08011   
     axis 0 0 0   XYZ
    dof rx ry rz
    limits (-20.0 45.0)
           (-30.0 30.0)
           (-30.0 30.0)
  end
  begin
     id 13 
     name thorax
     direction -0.00910382 0.999916 -0.00923765   
     length 2.07397   
     axis 0 0 0   XYZ
    dof rx ry rz
    limits (-20.0 45.0)
           (-30.0 30.0)
           (-30.0 30.0)
  end
  begin
     id 14 
     name lowerneck
     direction 0.00171967 0.99778 0.0665733   
     length 1.67556   
     axis 0 0 0   XYZ
    dof rx ry rz
    limits (-20.0 45.0)
           (-30.0 30.0)
           (-30.0 30.0)
  end
  begin
     id 15 
     name upperneck
     direction -0.0143166 0.991302 -0.130828   
     length 1.68462   
     axis 0 0 0   XYZ
    dof rx ry rz
    limits (-20.0 45.0)
           (-30.0 30.0)
           (-30.0 30.0)
  end
  begin
     id 16
     name head
     direction -0.00606378 0.998665 -0.0512995  
     length 1.69269  
     axis 0 0 0   XYZ
    dof rx ry rz
    limits (-20.0 45.0)
           (-30.0 30.0)
           (-30.0 30.0)
  end
  begin
     id 17 
     name lclavicle
     direction 0.9638 0.179341 0.197297  
     length 4.12888  
     axis 0 0 0   XYZ
    dof ry rz
    limits (-20.0 10.0)
           (0.0 20.0)
  end
  begin
     id 18 
     name lhumerus
     direction 1 -4.48972e-011 -2.47351e-027   
     length 5.01834   
     axis -180 -30 -90   XYZ
    dof rx ry rz
    limits (-60.0 90.0)
           (-90.0 90.0)
           (-90.0 90.0)
  end
  begin
     id 19
     name lradius
     direction 1 -4.48965e-011 1.51591e-026   
     length 3.4869   
     axis -180 -30 -90   XYZ
    dof rx
    limits (-10.0 170.0)
  end
  begin
     id 20
     name lwrist
     direction 1 -4.48957e-011 2.70032e-026   
     length 1.74345   
     axis -1.81515e-014 90 90   XYZ
    dof ry
    limits (-180.0 0.0)
 end
  begin
     id 21 
     name lhand
     direction 1 -4.48951e-011 5.40064e-026   
     length 0.76799   
     axis -3.44607e-014 90 90   XYZ
    dof rx rz
    limits (-90.0 90.0)
           (-45.0 45.0)
  end
  begin
     id 22 
     name lfingers
     direction 1 -4.48971e-011 1.08013e-025   
     length 0.619174   
     axis -6.89214e-014 90 90   XYZ
    dof rx
    limits (0.0 90.0)
  end
  begin
     id 23
     name lthumb
     direction 0.707107 -6.34931e-011 0.707107   
     length 0.889013   
     axis -90 45 2.85299e-015   XYZ
    dof rx rz
    limits (-45.0 45.0)
           (-45.0 45.0)
  end
  begin
     id 24 
     name rclavicle
     direction -0.961409 0.252588 0.109054   
     length 4.04305  
     axis 0 0 0   XYZ 
    dof ry rz
    limits (-10.0 20.0)
           (-20.0 0.0)
  end
  begin
     id 25 
     name rhumerus
     direction -1 -4.4897e-011 1.33872e-017  
     length 4.70164   
     axis -180 30 90   XYZ
    dof rx ry rz
    limits (-90.0 60.0)
           (-90.0 90.0)
           (-90.0 90.0)
  end
  begin
     id 26 
     name rradius
     direction -1 -4.48954e-011 1.83844e-026   
     length 3.49911   
     axis -180 30 90   XYZ
    dof rx
    limits (-10.0 170.0)
  end
  begin
     id 27 
     name rwrist
     direction -1 -4.49008e-011 2.70032e-026   
     length 1.74955   
     axis -1.81515e-014 -90 -90   XYZ
    dof ry
    limits (-180.0 0.0)
  end
  begin
     id 28
     name rhand
     direction -1 -4.48916e-011 5.40064e-026   
     length 0.739335   
     axis -3.44607e-014 -90 -90   XYZ
    dof rx rz
    limits (-90.0 90.0)
           (-45.0 45.0)
  end
  begin
     id 29
     name rfingers
     direction -1 -4.48987e-011 1.08013e-025   
     length 0.596071   
     axis -6.89214e-014 -90 -90   XYZ
    dof rx
    limits (0.0 90.0)
  end
  begin
     id 30
     name rthumb
     direction -0.707107 -6.34935e-011 0.707107   
     length 0.855843   
     axis -90 -45 -2.85299e-015   XYZ
    dof rx rz
    limits (-45.0 45.0)
           (-45.0 45.0)
  end
:hierarchy
  begin
    root lhipjoint rhipjoint lowerback
    lhipjoint lfemur
    lfemur ltibia
    ltibia lfoot
    lfoot ltoes
    rhipjoint rfemur
    rfemur rtibia
    rtibia rfoot
    rfoot rtoes
    lowerback upperback
    upperback thorax
    thorax lowerneck lclavicle rclavicle
    lowerneck upperneck
    upperneck head
    lclavicle lhumerus
    lhumerus lradius
    lradius lwrist
    lwrist lhand lthumb
    lhand lfingers
    rclavicle rhumerus
    rhumerus rradius
    rradius rwrist
    rwrist rhand rthumb
    rhand rfingers
  end

#!OML:ASF I:\salsa\salsa 7_09\Patient 1\Session 1\dancermale.ASF
:FULLY-SPECIFIED
:DEGREES
454
root -9.04868 17.4524 -1.55266 548.163 71.7931 538.747
lowerback -12.6676 -2.05479 12.9341
upperback 0.787265 -4.32027 -4.79487
thorax 6.66877 -1.54547 -13.4998
lowerneck -4.17546 -4.49952 3.50822
upperneck 16.6154 -6.47295 2.05523
head 5.66528 -2.65412 -0.310199
rclavicle -3.08116e-015 -5.725e-014
rhumerus -61.732 -2.86829 -98.6678
rradius 72.1688
rwrist 11.2972
rhand -31.6184 15.2036
rfingers 7.12502
rthumb -4.88028 -14.7202
lclavicle -3.08116e-015 -5.725e-014
lhumerus -46.4315 -45.6842 107.332
lradius 88.1055
lwrist 15.2422
lhand -4.7045 41.1586
lfingers 7.12502
lthumb 21.0773 -289.967
rfemur -26.9596 -21.9228 18.4083
rtibia 34.5663
rfoot -15.0846 -21.4236
rtoes 5.30658
lfemur -10.5621 0.287129 -22.0169
ltibia 23.5423
lfoot -24.592 11.034
ltoes -8.19213
455
root -8.9356 17.4654 -1.53271 549.028 71.8045 539.608
lowerback -12.9343 -2.3375 12.9471
upperback 0.827846 -4.75845 -4.53985
thorax 6.74518 -1.75874 -13.2955
lowerneck -4.21757 -4.25109 3.29661
upperneck 16.7967 -6.11393 2.00171
head 5.73524 -2.49058 -0.275059
rclavicle 3.13086e-014 -4.53229e-014
rhumerus -63.2031 -1.25523 -98.9211
rradius 74.6658
rwrist 11.5558
rhand -32.1714 16.5689
rfingers 7.12502
rthumb -5.41426 -13.3419
lclavicle 3.13086e-014 -4.53229e-014
lhumerus -45.8612 -46.1171 108.316
lradius 88.3055
lwrist 15.5682
lhand -4.3914 41.1719
lfingers 7.12502
lthumb 21.3781 -289.987
rfemur -26.0618 -19.9882 18.134
rtibia 30.4641
rfoot -14.2321 -21.9274
rtoes 6.058
lfemur -9.61241 0.0194513 -21.495
ltibia 22.4192
lfoot -24.3735 11.29
ltoes -8.74508
456
root -8.81135 17.4693 -1.50857 549.472 72.0707 540.141
lowerback -13.2543 -2.61555 12.813
upperback 0.951695 -5.17396 -4.33235
thorax 6.96276 -1.94646 -13.0711
lowerneck -4.30231 -3.96829 3.13562
upperneck 17.025 -5.69894 1.83808
head 5.82222 -2.30396 -0.279951
rclavicle -1.70955e-014 -6.36111e-015
rhumerus -64.6386 0.488511 -99.3043
rradius 77.2717
rwrist 11.8942
rhand -32.1363 17.1997
rfingers 7.12502
rthumb -5.38037 -12.712
lclavicle -1.70955e-014 -6.36111e-015
lhumerus -45.033 -46.0478 109.007
lradius 88.3291
lwrist 15.7304
lhand -4.24831 41.2834
lfingers 7.12502
lthumb 21.5155 -289.892
rfemur -25.2603 -18.4407 17.9715
rtibia 27.5063
rfoot -13.5992 -22.3114
rtoes 6.3103
lfemur -8.39752 -0.127584 -21.1133
ltibia 21.1347
lfoot -24.142 11.6595
ltoes -8.99174
457
root -8.68661 17.47 -1.47761 549.44 72.2721 540.315
lowerback -13.4794 -2.97558 12.6139
upperback 1.12836 -5.67119 -4.21966
thorax 7.16086 -2.17414 -12.9269
lowerneck -4.43315 -3.58893 3.15862
upperneck 17.1989 -5.15643 1.57226
head 5.89369 -2.05446 -0.338665
rclavicle -9.83984e-014 -1.59028e-015
rhumerus -65.9668 2.23198 -99.8569
rradius 79.9264
rwrist 12.3476
rhand -32.5924 17.7233
rfingers 7.12502
rthumb -5.82069 -12.1767
lclavicle -9.83984e-014 -1.59028e-015
lhumerus -44.0543 -45.5892 109.371
lradius 88.187
lwrist 15.9105
lhand -4.2592 41.345
lfingers 7.12502
lthumb 21.505 -289.829
rfemur -24.4468 -17.4781 17.9158
rtibia 25.626
rfoot -13.2097 -22.6535
rtoes 6.67933
lfemur -7.0307 -0.53212 -20.8668
ltibia 19.8603
lfoot -23.9249 12.0872
ltoes -8.6266
458
root -8.56506 17.462 -1.4389 548.865 72.3111 540.002
lowerback -13.4907 -3.33567 12.5244
upperback 1.19581 -6.12885 -4.38297
thorax 7.09062 -2.40336 -13.1294
lowerneck -4.29545 -3.25555 3.41075
upperneck 17.3076 -4.7008 1.45541
head 5.8989 -1.82265 -0.386833
rclavicle -3.4191e-014 -3.18055e-015
rhumerus -67.4125 3.49901 -100.687
rradius 82.6136
rwrist 12.9125
rhand -32.8055 18.3303
rfingers 7.12502
rthumb -6.02641 -11.564
lclavicle -3.4191e-014 -3.18055e-015
lhumerus -43.5832 -45.0192 109.687
lradius 87.9824
lwrist 16.1506
lhand -4.59294 41.4493
lfingers 7.12502
lthumb 21.1845 -289.688
rfemur -23.6149 -16.9236 17.8568
rtibia 24.7536
rfoot -13.0889 -23.1466
rtoes 4.93047
lfemur -5.68682 -1.14202 -20.7655
ltibia 18.7283
lfoot -23.7053 12.4652
ltoes -8.49829
459
root -8.45495 17.4558 -1.40469 547.536 72.3766 538.817
lowerback -13.3552 -3.67294 12.4568
upperback 1.09178 -6.51388 -4.7443
thorax 6.74021 -2.62838 -13.5293
lowerneck -4.00319 -2.93895 3.58509
upperneck 17.4594 -4.28284 1.57085
head 5.89996 -1.59387 -0.349662
rclavicle -7.25564e-015 -7.95139e-015
rhumerus -68.8407 4.64863 -101.706
rradius 85.1822
rwrist 13.2944
rhand -32.9678 19.1257
rfingers 7.12502
rthumb -6.18313 -10.7641
lclavicle -7.25564e-015 -7.95139e-015
lhumerus -43.3849 -44.0675 110.009
lradius 87.5435
lwrist 16.4615
lhand -5.21966 41.222
lfingers 7.12502
lthumb 20.5823 -289.849
rfemur -23.0998 -17.0233 17.7577
rtibia 25.0917
rfoot -13.1071 -23.4423
rtoes 0.773544
lfemur -4.68071 -1.46639 -20.9737
ltibia 17.9793
lfoot -23.5048 12.6568
ltoes -9.00457
460
root -8.34345 17.4466 -1.36314 546.575 72.4367 537.843
lowerback -13.522 -4.07444 12.1344
upperback 1.04926 -7.0015 -4.86504
thorax 6.65225 -2.88963 -13.5531
lowerneck -3.95078 -2.5695 3.5504
upperneck 17.6237 -3.77974 1.60754
head 5.94879 -1.34432 -0.302398
rclavicle -3.62782e-014 9.54166e-015
rhumerus -69.7884 6.28308 -102.54
rradius 87.4505
rwrist 13.4579
rhand -32.9924 19.9871
rfingers 7.12502
rthumb -6.20689 -9.90202
lclavicle -3.62782e-014 9.54166e-015
lhumerus -42.6207 -42.5608 110.1
lradius 86.7949
lwrist 16.9083
lhand -5.5138 41.1477
lfingers 7.12502
lthumb 20.2997 -289.893
rfemur -22.6384 -16.769 17.7125
rtibia 25.1812
rfoot -13.5661 -23.3944
rtoes -2.34119
lfemur -4.07926 -1.22803 -20.9585
ltibia 17.591
lfoot -23.4331 12.4154
ltoes -9.90107
461
root -8.21991 17.4328 -1.30064 546.386 72.3752 537.465
lowerback -14.1133 -4.49248 11.6834
upperback 1.07429 -7.54843 -4.83762
thorax 6.90005 -3.14968 -13.4055
lowerneck -4.06077 -2.24119 3.65765
upperneck 17.7925 -3.3062 1.3086
head 6.0177 -1.1264 -0.388048
rclavicle 1.10325e-014 -3.81667e-014
rhumerus -70.2612 7.97879 -103.316
rradius 89.4314
rwrist 13.506
rhand -32.9184 21.0451
rfingers 7.12502
rthumb -6.13547 -8.84604
lclavicle 1.10325e-014 -3.81667e-014
lhumerus -41.5518 -40.8738 109.957
lradius 85.7809
lwrist 17.2315
lhand -5.34563 41.2137
lfingers 7.12502
lthumb 20.4613 -289.844
rfemur -22.1481 -15.9946 17.887
rtibia 24.8359
rfoot -14.2675 -23.569
rtoes -4.24803
lfemur -4.24889 -0.74777 -20.5465
ltibia 18.1856
lfoot -23.7721 11.9653
ltoes -10.9115
462
root -8.09585 17.4175 -1.23851 546.492 72.3857 537.678
lowerback -14.4798 -4.86951 11.4237
upperback 1.18682 -8.05342 -4.79947
thorax 7.11638 -3.3821 -13.3363
lowerneck -3.81339 -1.87567 3.75151
upperneck 17.5194 -2.76609 1.06157
head 5.88942 -0.88862 -0.444243
rclavicle -3.28989e-014 -2.46493e-014
rhumerus -70.4997 9.57984 -104.099
rradius 91.2476
rwrist 13.4607
rhand -32.8704 22.009
rfingers 7.12502
rthumb -6.08912 -7.88352
lclavicle -3.28989e-014 -2.46493e-014
lhumerus -40.7462 -38.682 109.789
lradius 84.7456
lwrist 17.144
lhand -5.35524 41.0602
lfingers 7.12502
lthumb 20.4521 -289.997
rfemur -21.4003 -15.8144 18.1902
rtibia 24.4073
rfoot -14.5767 -23.4919
rtoes -5.55038
lfemur -4.56263 -0.267837 -19.9852
ltibia 19.5932
lfoot -23.9906 11.8475
ltoes -12.6603
